<mxfile host="app.diagrams.net" modified="2023-07-11T16:13:04.861Z" agent="Mozilla/5.0 (Windows NT 10.0; Win64; x64) AppleWebKit/537.36 (KHTML, like Gecko) Chrome/113.0.0.0 Safari/537.36 OPR/99.0.0.0" etag="bxRTFCRr_JRUDyywQQBt" version="21.3.7" type="device">
  <diagram name="Pagina-1" id="rFU_sqioOXPZMRnYCsA3">
    <mxGraphModel dx="1249" dy="681" grid="1" gridSize="10" guides="1" tooltips="1" connect="1" arrows="1" fold="1" page="1" pageScale="1" pageWidth="827" pageHeight="1169" math="1" shadow="0">
      <root>
        <mxCell id="0" />
        <mxCell id="1" parent="0" />
        <mxCell id="9q3LpZvZRBrV1jGRHOvV-120" style="edgeStyle=orthogonalEdgeStyle;rounded=0;orthogonalLoop=1;jettySize=auto;html=1;exitX=0.5;exitY=1;exitDx=0;exitDy=0;entryX=0.5;entryY=0;entryDx=0;entryDy=0;fontSize=15;" edge="1" parent="1" source="9q3LpZvZRBrV1jGRHOvV-103" target="9q3LpZvZRBrV1jGRHOvV-109">
          <mxGeometry relative="1" as="geometry" />
        </mxCell>
        <mxCell id="9q3LpZvZRBrV1jGRHOvV-103" value="" style="whiteSpace=wrap;html=1;aspect=fixed;fontSize=15;" vertex="1" parent="1">
          <mxGeometry x="740" y="200" width="107" height="107" as="geometry" />
        </mxCell>
        <mxCell id="9q3LpZvZRBrV1jGRHOvV-66" style="edgeStyle=orthogonalEdgeStyle;rounded=0;orthogonalLoop=1;jettySize=auto;html=1;exitX=0.5;exitY=0;exitDx=0;exitDy=0;entryX=0;entryY=0.5;entryDx=0;entryDy=0;fontSize=15;" edge="1" parent="1" source="9q3LpZvZRBrV1jGRHOvV-2" target="9q3LpZvZRBrV1jGRHOvV-4">
          <mxGeometry relative="1" as="geometry" />
        </mxCell>
        <mxCell id="9q3LpZvZRBrV1jGRHOvV-78" style="edgeStyle=orthogonalEdgeStyle;rounded=0;orthogonalLoop=1;jettySize=auto;html=1;exitX=1;exitY=0.5;exitDx=0;exitDy=0;entryX=0.75;entryY=0;entryDx=0;entryDy=0;fontSize=15;" edge="1" parent="1" source="9q3LpZvZRBrV1jGRHOvV-2" target="9q3LpZvZRBrV1jGRHOvV-58">
          <mxGeometry relative="1" as="geometry" />
        </mxCell>
        <mxCell id="9q3LpZvZRBrV1jGRHOvV-2" value="&quot;a girl holding a glass approaching the table&quot;" style="text;html=1;strokeColor=none;fillColor=none;align=center;verticalAlign=middle;whiteSpace=wrap;rounded=0;fontSize=15;fontStyle=2" vertex="1" parent="1">
          <mxGeometry x="2" y="281.25" width="130" height="30" as="geometry" />
        </mxCell>
        <mxCell id="9q3LpZvZRBrV1jGRHOvV-84" style="edgeStyle=orthogonalEdgeStyle;rounded=0;orthogonalLoop=1;jettySize=auto;html=1;exitX=1;exitY=0.5;exitDx=0;exitDy=0;entryX=0.919;entryY=-0.04;entryDx=0;entryDy=0;entryPerimeter=0;fontSize=15;" edge="1" parent="1" source="9q3LpZvZRBrV1jGRHOvV-4" target="9q3LpZvZRBrV1jGRHOvV-8">
          <mxGeometry relative="1" as="geometry">
            <Array as="points">
              <mxPoint x="401" y="192" />
            </Array>
          </mxGeometry>
        </mxCell>
        <mxCell id="9q3LpZvZRBrV1jGRHOvV-105" style="edgeStyle=orthogonalEdgeStyle;rounded=0;orthogonalLoop=1;jettySize=auto;html=1;exitX=1;exitY=0.5;exitDx=0;exitDy=0;entryX=0;entryY=0.5;entryDx=0;entryDy=0;fontSize=15;" edge="1" parent="1" source="9q3LpZvZRBrV1jGRHOvV-4" target="9q3LpZvZRBrV1jGRHOvV-103">
          <mxGeometry relative="1" as="geometry">
            <Array as="points">
              <mxPoint x="670" y="192" />
              <mxPoint x="670" y="253" />
            </Array>
          </mxGeometry>
        </mxCell>
        <mxCell id="9q3LpZvZRBrV1jGRHOvV-4" value="Offlline&lt;br style=&quot;font-size: 15px;&quot;&gt;Scene Graph parsing" style="rounded=1;whiteSpace=wrap;html=1;fontSize=15;" vertex="1" parent="1">
          <mxGeometry x="276" y="161.5" width="111.5" height="61.5" as="geometry" />
        </mxCell>
        <mxCell id="9q3LpZvZRBrV1jGRHOvV-62" style="edgeStyle=orthogonalEdgeStyle;rounded=0;orthogonalLoop=1;jettySize=auto;html=1;entryX=0.25;entryY=0;entryDx=0;entryDy=0;fontSize=15;" edge="1" parent="1" source="9q3LpZvZRBrV1jGRHOvV-5" target="9q3LpZvZRBrV1jGRHOvV-58">
          <mxGeometry relative="1" as="geometry" />
        </mxCell>
        <mxCell id="9q3LpZvZRBrV1jGRHOvV-5" value="" style="image;aspect=fixed;html=1;points=[];align=center;fontSize=15;image=img/lib/azure2/general/Image.svg;" vertex="1" parent="1">
          <mxGeometry x="30.630000000000003" y="341.5" width="72.73" height="50" as="geometry" />
        </mxCell>
        <mxCell id="9q3LpZvZRBrV1jGRHOvV-47" style="edgeStyle=orthogonalEdgeStyle;rounded=0;orthogonalLoop=1;jettySize=auto;html=1;exitX=1;exitY=0.5;exitDx=0;exitDy=0;entryX=0;entryY=0.25;entryDx=0;entryDy=0;fontSize=15;" edge="1" parent="1" source="9q3LpZvZRBrV1jGRHOvV-8" target="9q3LpZvZRBrV1jGRHOvV-35">
          <mxGeometry relative="1" as="geometry" />
        </mxCell>
        <mxCell id="9q3LpZvZRBrV1jGRHOvV-8" value="OwL-ViT" style="rounded=1;whiteSpace=wrap;html=1;fontSize=15;" vertex="1" parent="1">
          <mxGeometry x="259" y="346.5" width="154" height="40" as="geometry" />
        </mxCell>
        <mxCell id="9q3LpZvZRBrV1jGRHOvV-11" value="[&quot;girl&quot;, &quot;glass&quot;, &quot;table&quot;]" style="text;html=1;strokeColor=none;fillColor=none;align=center;verticalAlign=middle;whiteSpace=wrap;rounded=0;fontSize=15;" vertex="1" parent="1">
          <mxGeometry x="402" y="161.5" width="188" height="30" as="geometry" />
        </mxCell>
        <mxCell id="9q3LpZvZRBrV1jGRHOvV-18" value="Entities candidate boxes" style="text;html=1;strokeColor=none;fillColor=none;align=center;verticalAlign=middle;whiteSpace=wrap;rounded=0;fontSize=15;" vertex="1" parent="1">
          <mxGeometry x="473.5" y="404.75" width="147" height="30" as="geometry" />
        </mxCell>
        <mxCell id="9q3LpZvZRBrV1jGRHOvV-54" style="edgeStyle=orthogonalEdgeStyle;rounded=0;orthogonalLoop=1;jettySize=auto;html=1;exitX=0.5;exitY=0;exitDx=0;exitDy=0;entryX=0.5;entryY=1;entryDx=0;entryDy=0;endArrow=none;endFill=0;fontSize=15;" edge="1" parent="1" source="9q3LpZvZRBrV1jGRHOvV-32" target="9q3LpZvZRBrV1jGRHOvV-46">
          <mxGeometry relative="1" as="geometry">
            <Array as="points">
              <mxPoint x="614" y="301.25" />
              <mxPoint x="552" y="301.25" />
            </Array>
          </mxGeometry>
        </mxCell>
        <mxCell id="9q3LpZvZRBrV1jGRHOvV-32" value="&quot;glass&quot;" style="text;html=1;strokeColor=none;fillColor=none;align=center;verticalAlign=middle;whiteSpace=wrap;rounded=0;fontSize=15;" vertex="1" parent="1">
          <mxGeometry x="594" y="316.25" width="39" height="30" as="geometry" />
        </mxCell>
        <mxCell id="9q3LpZvZRBrV1jGRHOvV-53" style="edgeStyle=orthogonalEdgeStyle;rounded=0;orthogonalLoop=1;jettySize=auto;html=1;exitX=0.5;exitY=0;exitDx=0;exitDy=0;entryX=0.5;entryY=1;entryDx=0;entryDy=0;endArrow=none;endFill=0;fontSize=15;" edge="1" parent="1" source="9q3LpZvZRBrV1jGRHOvV-34" target="9q3LpZvZRBrV1jGRHOvV-46">
          <mxGeometry relative="1" as="geometry" />
        </mxCell>
        <mxCell id="9q3LpZvZRBrV1jGRHOvV-34" value="&quot;table&quot;" style="text;html=1;strokeColor=none;fillColor=none;align=center;verticalAlign=middle;whiteSpace=wrap;rounded=0;fontSize=15;" vertex="1" parent="1">
          <mxGeometry x="532" y="316.25" width="39" height="30" as="geometry" />
        </mxCell>
        <mxCell id="9q3LpZvZRBrV1jGRHOvV-35" value="" style="whiteSpace=wrap;html=1;aspect=fixed;fillColor=#fa6800;fontColor=#000000;strokeColor=#C73500;fontSize=15;" vertex="1" parent="1">
          <mxGeometry x="461" y="356.25" width="40" height="40" as="geometry" />
        </mxCell>
        <mxCell id="9q3LpZvZRBrV1jGRHOvV-36" value="" style="whiteSpace=wrap;html=1;aspect=fixed;fillColor=#fa6800;fontColor=#000000;strokeColor=#C73500;fontSize=15;" vertex="1" parent="1">
          <mxGeometry x="466" y="351.25" width="40" height="40" as="geometry" />
        </mxCell>
        <mxCell id="9q3LpZvZRBrV1jGRHOvV-37" value="" style="whiteSpace=wrap;html=1;aspect=fixed;fillColor=#fa6800;fontColor=#000000;strokeColor=#C73500;fontSize=15;" vertex="1" parent="1">
          <mxGeometry x="472" y="344.25" width="40" height="40" as="geometry" />
        </mxCell>
        <mxCell id="9q3LpZvZRBrV1jGRHOvV-39" value="" style="whiteSpace=wrap;html=1;aspect=fixed;fillColor=#6d8764;fontColor=#ffffff;strokeColor=#3A5431;fontSize=15;" vertex="1" parent="1">
          <mxGeometry x="522" y="356.25" width="40" height="40" as="geometry" />
        </mxCell>
        <mxCell id="9q3LpZvZRBrV1jGRHOvV-40" value="" style="whiteSpace=wrap;html=1;aspect=fixed;fillColor=#6d8764;fontColor=#ffffff;strokeColor=#3A5431;fontSize=15;" vertex="1" parent="1">
          <mxGeometry x="527" y="351.25" width="40" height="40" as="geometry" />
        </mxCell>
        <mxCell id="9q3LpZvZRBrV1jGRHOvV-41" value="" style="whiteSpace=wrap;html=1;aspect=fixed;fillColor=#6d8764;fontColor=#ffffff;strokeColor=#3A5431;fontSize=15;" vertex="1" parent="1">
          <mxGeometry x="533" y="344.25" width="40" height="40" as="geometry" />
        </mxCell>
        <mxCell id="9q3LpZvZRBrV1jGRHOvV-42" value="" style="whiteSpace=wrap;html=1;aspect=fixed;fillColor=#647687;fontColor=#ffffff;strokeColor=#314354;fontSize=15;" vertex="1" parent="1">
          <mxGeometry x="582" y="356.25" width="40" height="40" as="geometry" />
        </mxCell>
        <mxCell id="9q3LpZvZRBrV1jGRHOvV-43" value="" style="whiteSpace=wrap;html=1;aspect=fixed;fillColor=#647687;fontColor=#ffffff;strokeColor=#314354;fontSize=15;" vertex="1" parent="1">
          <mxGeometry x="587" y="351.25" width="40" height="40" as="geometry" />
        </mxCell>
        <mxCell id="9q3LpZvZRBrV1jGRHOvV-44" value="" style="whiteSpace=wrap;html=1;aspect=fixed;fillColor=#647687;fontColor=#ffffff;strokeColor=#314354;fontSize=15;" vertex="1" parent="1">
          <mxGeometry x="593" y="344.25" width="40" height="40" as="geometry" />
        </mxCell>
        <mxCell id="9q3LpZvZRBrV1jGRHOvV-106" style="edgeStyle=orthogonalEdgeStyle;rounded=0;orthogonalLoop=1;jettySize=auto;html=1;exitX=1;exitY=0.5;exitDx=0;exitDy=0;entryX=0;entryY=0.5;entryDx=0;entryDy=0;fontSize=15;" edge="1" parent="1" source="9q3LpZvZRBrV1jGRHOvV-46" target="9q3LpZvZRBrV1jGRHOvV-103">
          <mxGeometry relative="1" as="geometry" />
        </mxCell>
        <mxCell id="9q3LpZvZRBrV1jGRHOvV-46" value="PostProcessor" style="rounded=1;whiteSpace=wrap;html=1;fontSize=15;" vertex="1" parent="1">
          <mxGeometry x="482" y="233.25" width="140" height="40" as="geometry" />
        </mxCell>
        <mxCell id="9q3LpZvZRBrV1jGRHOvV-52" style="edgeStyle=orthogonalEdgeStyle;rounded=0;orthogonalLoop=1;jettySize=auto;html=1;exitX=0.5;exitY=0;exitDx=0;exitDy=0;entryX=0.5;entryY=1;entryDx=0;entryDy=0;endArrow=none;endFill=0;fontSize=15;" edge="1" parent="1" source="9q3LpZvZRBrV1jGRHOvV-51" target="9q3LpZvZRBrV1jGRHOvV-46">
          <mxGeometry relative="1" as="geometry">
            <Array as="points">
              <mxPoint x="493" y="301.25" />
              <mxPoint x="552" y="301.25" />
            </Array>
          </mxGeometry>
        </mxCell>
        <mxCell id="9q3LpZvZRBrV1jGRHOvV-51" value="&quot;girl&quot;" style="text;html=1;strokeColor=none;fillColor=none;align=center;verticalAlign=middle;whiteSpace=wrap;rounded=0;fontSize=15;" vertex="1" parent="1">
          <mxGeometry x="473" y="316.25" width="39" height="30" as="geometry" />
        </mxCell>
        <mxCell id="9q3LpZvZRBrV1jGRHOvV-63" style="edgeStyle=orthogonalEdgeStyle;rounded=0;orthogonalLoop=1;jettySize=auto;html=1;exitX=0.25;exitY=1;exitDx=0;exitDy=0;entryX=0;entryY=0.5;entryDx=0;entryDy=0;fontSize=15;" edge="1" parent="1" source="9q3LpZvZRBrV1jGRHOvV-58" target="9q3LpZvZRBrV1jGRHOvV-61">
          <mxGeometry relative="1" as="geometry" />
        </mxCell>
        <mxCell id="9q3LpZvZRBrV1jGRHOvV-67" style="edgeStyle=orthogonalEdgeStyle;rounded=0;orthogonalLoop=1;jettySize=auto;html=1;exitX=0.25;exitY=1;exitDx=0;exitDy=0;entryX=0;entryY=0.5;entryDx=0;entryDy=0;fontSize=15;" edge="1" parent="1" source="9q3LpZvZRBrV1jGRHOvV-58" target="9q3LpZvZRBrV1jGRHOvV-8">
          <mxGeometry relative="1" as="geometry" />
        </mxCell>
        <mxCell id="9q3LpZvZRBrV1jGRHOvV-85" style="edgeStyle=orthogonalEdgeStyle;rounded=0;orthogonalLoop=1;jettySize=auto;html=1;exitX=0.75;exitY=1;exitDx=0;exitDy=0;entryX=0;entryY=0.5;entryDx=0;entryDy=0;fontSize=15;" edge="1" parent="1" source="9q3LpZvZRBrV1jGRHOvV-58" target="9q3LpZvZRBrV1jGRHOvV-60">
          <mxGeometry relative="1" as="geometry" />
        </mxCell>
        <mxCell id="9q3LpZvZRBrV1jGRHOvV-58" value="PreProcessor" style="rounded=1;whiteSpace=wrap;html=1;rotation=-90;fontSize=15;" vertex="1" parent="1">
          <mxGeometry x="119" y="316.25" width="140" height="30" as="geometry" />
        </mxCell>
        <mxCell id="9q3LpZvZRBrV1jGRHOvV-119" style="edgeStyle=orthogonalEdgeStyle;rounded=0;orthogonalLoop=1;jettySize=auto;html=1;exitX=0.5;exitY=0;exitDx=0;exitDy=0;entryX=0.5;entryY=1;entryDx=0;entryDy=0;fontSize=15;" edge="1" parent="1" source="9q3LpZvZRBrV1jGRHOvV-60" target="9q3LpZvZRBrV1jGRHOvV-4">
          <mxGeometry relative="1" as="geometry" />
        </mxCell>
        <mxCell id="9q3LpZvZRBrV1jGRHOvV-60" value="CLIP&lt;br style=&quot;font-size: 15px;&quot;&gt;Text Transformer" style="rounded=1;whiteSpace=wrap;html=1;fontSize=15;" vertex="1" parent="1">
          <mxGeometry x="273.5" y="272.75" width="117" height="47" as="geometry" />
        </mxCell>
        <mxCell id="9q3LpZvZRBrV1jGRHOvV-114" style="edgeStyle=orthogonalEdgeStyle;rounded=0;orthogonalLoop=1;jettySize=auto;html=1;exitX=1;exitY=0.5;exitDx=0;exitDy=0;entryX=0;entryY=0.5;entryDx=0;entryDy=0;fontSize=15;" edge="1" parent="1" source="9q3LpZvZRBrV1jGRHOvV-61" target="9q3LpZvZRBrV1jGRHOvV-111">
          <mxGeometry relative="1" as="geometry" />
        </mxCell>
        <mxCell id="9q3LpZvZRBrV1jGRHOvV-115" style="edgeStyle=orthogonalEdgeStyle;rounded=0;orthogonalLoop=1;jettySize=auto;html=1;exitX=1;exitY=0.5;exitDx=0;exitDy=0;entryX=0;entryY=0.5;entryDx=0;entryDy=0;fontSize=15;" edge="1" parent="1" source="9q3LpZvZRBrV1jGRHOvV-61" target="9q3LpZvZRBrV1jGRHOvV-103">
          <mxGeometry relative="1" as="geometry">
            <Array as="points">
              <mxPoint x="670" y="453" />
              <mxPoint x="670" y="253" />
            </Array>
          </mxGeometry>
        </mxCell>
        <mxCell id="9q3LpZvZRBrV1jGRHOvV-61" value="CLIP&lt;br style=&quot;font-size: 15px;&quot;&gt;ViT-B/32" style="rounded=1;whiteSpace=wrap;html=1;fontSize=15;" vertex="1" parent="1">
          <mxGeometry x="259" y="424.25" width="90" height="57" as="geometry" />
        </mxCell>
        <mxCell id="9q3LpZvZRBrV1jGRHOvV-87" value="" style="ellipse;whiteSpace=wrap;html=1;aspect=fixed;fillColor=#647687;fontColor=#ffffff;strokeColor=#314354;fontSize=15;" vertex="1" parent="1">
          <mxGeometry x="811.87" y="247.63" width="27.75" height="27.75" as="geometry" />
        </mxCell>
        <mxCell id="9q3LpZvZRBrV1jGRHOvV-88" value="" style="ellipse;whiteSpace=wrap;html=1;aspect=fixed;fillColor=#fa6800;fontColor=#000000;strokeColor=#C73500;fontSize=15;" vertex="1" parent="1">
          <mxGeometry x="779.62" y="207.63" width="27.75" height="27.75" as="geometry" />
        </mxCell>
        <mxCell id="9q3LpZvZRBrV1jGRHOvV-93" value="" style="ellipse;whiteSpace=wrap;html=1;aspect=fixed;fillColor=#6d8764;fontColor=#ffffff;strokeColor=#3A5431;fontSize=15;" vertex="1" parent="1">
          <mxGeometry x="751.87" y="264.63" width="27.75" height="27.75" as="geometry" />
        </mxCell>
        <mxCell id="9q3LpZvZRBrV1jGRHOvV-101" value="" style="endArrow=classic;html=1;rounded=0;exitX=1;exitY=1;exitDx=0;exitDy=0;entryX=0;entryY=0;entryDx=0;entryDy=0;fontSize=15;" edge="1" parent="1" source="9q3LpZvZRBrV1jGRHOvV-88" target="9q3LpZvZRBrV1jGRHOvV-87">
          <mxGeometry width="50" height="50" relative="1" as="geometry">
            <mxPoint x="631.87" y="347.63" as="sourcePoint" />
            <mxPoint x="821.87" y="257.63" as="targetPoint" />
          </mxGeometry>
        </mxCell>
        <mxCell id="9q3LpZvZRBrV1jGRHOvV-102" value="" style="endArrow=classic;html=1;rounded=0;entryX=0.5;entryY=0;entryDx=0;entryDy=0;exitX=0.5;exitY=1;exitDx=0;exitDy=0;fontSize=15;" edge="1" parent="1" source="9q3LpZvZRBrV1jGRHOvV-88" target="9q3LpZvZRBrV1jGRHOvV-93">
          <mxGeometry width="50" height="50" relative="1" as="geometry">
            <mxPoint x="631.87" y="347.63" as="sourcePoint" />
            <mxPoint x="681.87" y="297.63" as="targetPoint" />
          </mxGeometry>
        </mxCell>
        <mxCell id="9q3LpZvZRBrV1jGRHOvV-108" value="Features-rich&lt;br&gt;SceneGraph" style="text;html=1;strokeColor=none;fillColor=none;align=center;verticalAlign=middle;whiteSpace=wrap;rounded=0;fontSize=15;" vertex="1" parent="1">
          <mxGeometry x="743.49" y="161.5" width="100" height="30" as="geometry" />
        </mxCell>
        <mxCell id="9q3LpZvZRBrV1jGRHOvV-112" style="edgeStyle=orthogonalEdgeStyle;rounded=0;orthogonalLoop=1;jettySize=auto;html=1;exitX=0.5;exitY=1;exitDx=0;exitDy=0;entryX=0.5;entryY=0;entryDx=0;entryDy=0;fontSize=15;" edge="1" parent="1" source="9q3LpZvZRBrV1jGRHOvV-109" target="9q3LpZvZRBrV1jGRHOvV-111">
          <mxGeometry relative="1" as="geometry" />
        </mxCell>
        <mxCell id="9q3LpZvZRBrV1jGRHOvV-109" value="Graph &lt;br&gt;Self-Attention" style="rounded=1;whiteSpace=wrap;html=1;fontSize=15;" vertex="1" parent="1">
          <mxGeometry x="733.49" y="351.25" width="120" height="68.5" as="geometry" />
        </mxCell>
        <mxCell id="9q3LpZvZRBrV1jGRHOvV-111" value="Graph &lt;br style=&quot;font-size: 15px;&quot;&gt;Cross-Attention" style="rounded=1;whiteSpace=wrap;html=1;fontSize=15;" vertex="1" parent="1">
          <mxGeometry x="733.49" y="470" width="120" height="130" as="geometry" />
        </mxCell>
        <mxCell id="9q3LpZvZRBrV1jGRHOvV-116" value="$$\mathcal{Q}$$" style="text;html=1;strokeColor=none;fillColor=none;align=center;verticalAlign=middle;whiteSpace=wrap;rounded=0;fontSize=15;" vertex="1" parent="1">
          <mxGeometry x="787" y="424.25" width="40" height="30" as="geometry" />
        </mxCell>
        <mxCell id="9q3LpZvZRBrV1jGRHOvV-117" value="$$\mathcal{K, V}$$" style="text;html=1;strokeColor=none;fillColor=none;align=center;verticalAlign=middle;whiteSpace=wrap;rounded=0;fontSize=15;" vertex="1" parent="1">
          <mxGeometry x="660" y="504" width="80" height="30" as="geometry" />
        </mxCell>
        <mxCell id="9q3LpZvZRBrV1jGRHOvV-118" value="$$\mathcal{Q, K, V}$$" style="text;html=1;strokeColor=none;fillColor=none;align=center;verticalAlign=middle;whiteSpace=wrap;rounded=0;fontSize=15;" vertex="1" parent="1">
          <mxGeometry x="799.62" y="316.25" width="80" height="30" as="geometry" />
        </mxCell>
        <mxCell id="9q3LpZvZRBrV1jGRHOvV-130" value="Candidate&amp;nbsp;Queries" style="text;html=1;strokeColor=none;fillColor=none;align=center;verticalAlign=middle;whiteSpace=wrap;rounded=0;fontSize=15;" vertex="1" parent="1">
          <mxGeometry x="985" y="450.25" width="110" height="30" as="geometry" />
        </mxCell>
        <mxCell id="9q3LpZvZRBrV1jGRHOvV-137" style="edgeStyle=orthogonalEdgeStyle;rounded=0;orthogonalLoop=1;jettySize=auto;html=1;exitX=1;exitY=0.5;exitDx=0;exitDy=0;entryX=0.722;entryY=0.023;entryDx=0;entryDy=0;entryPerimeter=0;endArrow=none;endFill=0;fontSize=15;" edge="1" parent="1" source="9q3LpZvZRBrV1jGRHOvV-132" target="9q3LpZvZRBrV1jGRHOvV-136">
          <mxGeometry relative="1" as="geometry" />
        </mxCell>
        <mxCell id="9q3LpZvZRBrV1jGRHOvV-132" value="" style="rounded=0;whiteSpace=wrap;html=1;fillColor=#647687;fontColor=#ffffff;strokeColor=#314354;fontSize=15;" vertex="1" parent="1">
          <mxGeometry x="854.49" y="485.25" width="15.51" height="18.75" as="geometry" />
        </mxCell>
        <mxCell id="9q3LpZvZRBrV1jGRHOvV-138" style="edgeStyle=orthogonalEdgeStyle;rounded=0;orthogonalLoop=1;jettySize=auto;html=1;exitX=1;exitY=0.5;exitDx=0;exitDy=0;entryX=0.588;entryY=-0.005;entryDx=0;entryDy=0;entryPerimeter=0;endArrow=none;endFill=0;fontSize=15;" edge="1" parent="1" source="9q3LpZvZRBrV1jGRHOvV-133" target="9q3LpZvZRBrV1jGRHOvV-136">
          <mxGeometry relative="1" as="geometry" />
        </mxCell>
        <mxCell id="9q3LpZvZRBrV1jGRHOvV-133" value="" style="rounded=0;whiteSpace=wrap;html=1;fillColor=#647687;fontColor=#ffffff;strokeColor=#314354;fontSize=15;" vertex="1" parent="1">
          <mxGeometry x="854.49" y="510" width="15.51" height="18.75" as="geometry" />
        </mxCell>
        <mxCell id="9q3LpZvZRBrV1jGRHOvV-139" style="edgeStyle=orthogonalEdgeStyle;rounded=0;orthogonalLoop=1;jettySize=auto;html=1;exitX=1;exitY=0.5;exitDx=0;exitDy=0;entryX=0.447;entryY=-0.06;entryDx=0;entryDy=0;entryPerimeter=0;endArrow=none;endFill=0;fontSize=15;" edge="1" parent="1" source="9q3LpZvZRBrV1jGRHOvV-134" target="9q3LpZvZRBrV1jGRHOvV-136">
          <mxGeometry relative="1" as="geometry" />
        </mxCell>
        <mxCell id="9q3LpZvZRBrV1jGRHOvV-134" value="" style="rounded=0;whiteSpace=wrap;html=1;fillColor=#647687;fontColor=#ffffff;strokeColor=#314354;fontSize=15;" vertex="1" parent="1">
          <mxGeometry x="854.49" y="535" width="15.51" height="18.75" as="geometry" />
        </mxCell>
        <mxCell id="9q3LpZvZRBrV1jGRHOvV-140" style="edgeStyle=orthogonalEdgeStyle;rounded=0;orthogonalLoop=1;jettySize=auto;html=1;exitX=1;exitY=0.5;exitDx=0;exitDy=0;entryX=0.311;entryY=-0.06;entryDx=0;entryDy=0;entryPerimeter=0;endArrow=none;endFill=0;fontSize=15;" edge="1" parent="1" source="9q3LpZvZRBrV1jGRHOvV-135" target="9q3LpZvZRBrV1jGRHOvV-136">
          <mxGeometry relative="1" as="geometry" />
        </mxCell>
        <mxCell id="9q3LpZvZRBrV1jGRHOvV-135" value="" style="rounded=0;whiteSpace=wrap;html=1;fillColor=#647687;fontColor=#ffffff;strokeColor=#314354;fontSize=15;" vertex="1" parent="1">
          <mxGeometry x="854.49" y="560" width="15.51" height="18.75" as="geometry" />
        </mxCell>
        <mxCell id="9q3LpZvZRBrV1jGRHOvV-136" value="Regression Head" style="rounded=1;whiteSpace=wrap;html=1;rotation=-90;fontSize=15;" vertex="1" parent="1">
          <mxGeometry x="843.49" y="520" width="180" height="30" as="geometry" />
        </mxCell>
        <mxCell id="9q3LpZvZRBrV1jGRHOvV-145" style="edgeStyle=orthogonalEdgeStyle;rounded=0;orthogonalLoop=1;jettySize=auto;html=1;exitX=0;exitY=0.5;exitDx=0;exitDy=0;entryX=0.72;entryY=0.965;entryDx=0;entryDy=0;entryPerimeter=0;endArrow=none;endFill=0;fontSize=15;" edge="1" parent="1" source="9q3LpZvZRBrV1jGRHOvV-141" target="9q3LpZvZRBrV1jGRHOvV-136">
          <mxGeometry relative="1" as="geometry" />
        </mxCell>
        <mxCell id="9q3LpZvZRBrV1jGRHOvV-141" value="$$(c_w, c_h, w, h)$$" style="text;html=1;strokeColor=none;fillColor=none;align=center;verticalAlign=middle;whiteSpace=wrap;rounded=0;fontSize=15;" vertex="1" parent="1">
          <mxGeometry x="1000" y="480.25" width="80" height="30" as="geometry" />
        </mxCell>
        <mxCell id="9q3LpZvZRBrV1jGRHOvV-146" style="edgeStyle=orthogonalEdgeStyle;rounded=0;orthogonalLoop=1;jettySize=auto;html=1;exitX=0;exitY=0.5;exitDx=0;exitDy=0;entryX=0.592;entryY=1.05;entryDx=0;entryDy=0;entryPerimeter=0;endArrow=none;endFill=0;fontSize=15;" edge="1" parent="1" source="9q3LpZvZRBrV1jGRHOvV-142" target="9q3LpZvZRBrV1jGRHOvV-136">
          <mxGeometry relative="1" as="geometry" />
        </mxCell>
        <mxCell id="9q3LpZvZRBrV1jGRHOvV-142" value="$$(c_w, c_h, w, h)$$" style="text;html=1;strokeColor=none;fillColor=none;align=center;verticalAlign=middle;whiteSpace=wrap;rounded=0;fontSize=15;" vertex="1" parent="1">
          <mxGeometry x="1000" y="503.38" width="80" height="30" as="geometry" />
        </mxCell>
        <mxCell id="9q3LpZvZRBrV1jGRHOvV-147" style="edgeStyle=orthogonalEdgeStyle;rounded=0;orthogonalLoop=1;jettySize=auto;html=1;exitX=0;exitY=0.5;exitDx=0;exitDy=0;entryX=0.438;entryY=0.979;entryDx=0;entryDy=0;entryPerimeter=0;endArrow=none;endFill=0;fontSize=15;" edge="1" parent="1" source="9q3LpZvZRBrV1jGRHOvV-143" target="9q3LpZvZRBrV1jGRHOvV-136">
          <mxGeometry relative="1" as="geometry">
            <Array as="points">
              <mxPoint x="948" y="544" />
            </Array>
          </mxGeometry>
        </mxCell>
        <mxCell id="9q3LpZvZRBrV1jGRHOvV-143" value="$$(c_w, c_h, w, h)$$" style="text;html=1;strokeColor=none;fillColor=none;align=center;verticalAlign=middle;whiteSpace=wrap;rounded=0;fontSize=15;" vertex="1" parent="1">
          <mxGeometry x="1000" y="529" width="80" height="30" as="geometry" />
        </mxCell>
        <mxCell id="9q3LpZvZRBrV1jGRHOvV-148" style="edgeStyle=orthogonalEdgeStyle;rounded=0;orthogonalLoop=1;jettySize=auto;html=1;exitX=0;exitY=0.5;exitDx=0;exitDy=0;entryX=0.316;entryY=0.979;entryDx=0;entryDy=0;entryPerimeter=0;endArrow=none;endFill=0;fontSize=15;" edge="1" parent="1" source="9q3LpZvZRBrV1jGRHOvV-144" target="9q3LpZvZRBrV1jGRHOvV-136">
          <mxGeometry relative="1" as="geometry" />
        </mxCell>
        <mxCell id="9q3LpZvZRBrV1jGRHOvV-144" value="$$(c_w, c_h, w, h)$$" style="text;html=1;strokeColor=none;fillColor=none;align=center;verticalAlign=middle;whiteSpace=wrap;rounded=0;fontSize=15;" vertex="1" parent="1">
          <mxGeometry x="1000" y="553" width="80" height="30" as="geometry" />
        </mxCell>
      </root>
    </mxGraphModel>
  </diagram>
</mxfile>
